<svg xmlns="http://www.w3.org/2000/svg" viewBox="0 0 64 64" role="img" aria-label="Reddit workflow icon">
  <defs>
    <linearGradient id="bg" x1="8" y1="6" x2="56" y2="58" gradientUnits="userSpaceOnUse">
      <stop offset="0" stop-color="#ff9a3d" />
      <stop offset="0.55" stop-color="#f55d2d" />
      <stop offset="1" stop-color="#c92b4b" />
    </linearGradient>
    <linearGradient id="pen" x1="35" y1="27" x2="51" y2="43" gradientUnits="userSpaceOnUse">
      <stop offset="0" stop-color="#2d1c47" />
      <stop offset="1" stop-color="#101828" />
    </linearGradient>
    <filter id="shadow" x="-20%" y="-20%" width="140%" height="140%">
      <feDropShadow dx="0" dy="2" stdDeviation="2.2" flood-color="#7f1734" flood-opacity="0.25" />
    </filter>
  </defs>

  <rect width="64" height="64" rx="18" fill="url(#bg)" />
  <path d="M13 17c8-8 28-10 39-2" fill="none" stroke="#ffd7b2" stroke-linecap="round" stroke-opacity=".45" stroke-width="2.4" />
  <path d="M16 51c10 4 25 2 35-6" fill="none" stroke="#fff0df" stroke-linecap="round" stroke-opacity=".22" stroke-width="2" />

  <g filter="url(#shadow)">
    <path
      d="M18 18h20c6.627 0 12 5.373 12 12v3c0 6.627-5.373 12-12 12H31.5l-8.2 7.4c-.949.857-2.45.183-2.45-1.096V45C16.03 44.594 12 40.312 12 35.2V30c0-6.627 5.373-12 12-12Z"
      fill="#fff6e8"
    />
    <path d="M22 28h12" fill="none" stroke="#2d1c47" stroke-linecap="round" stroke-width="3.3" />
    <path d="M22 35h18" fill="none" stroke="#2d1c47" stroke-linecap="round" stroke-opacity=".82" stroke-width="3.3" />
  </g>

  <g transform="rotate(-12 42 38)">
    <path d="M39 24h10a2.8 2.8 0 0 1 2.8 2.8v18.7L44 52l-7.8-6.5V26.8A2.8 2.8 0 0 1 39 24Z" fill="url(#pen)" />
    <path d="M36.2 45.5 44 52l7.8-6.5" fill="#ffcf99" />
    <path d="M40.8 29.4h6.4" fill="none" stroke="#fff6e8" stroke-linecap="round" stroke-width="2.1" />
  </g>
</svg>
